<svg width="48" height="48" viewBox="0 0 48 48" fill="none" xmlns="http://www.w3.org/2000/svg">
<path d="M23.86 0C19.1409 0 14.5278 1.39936 10.6041 4.02113C6.68034 6.6429 3.62215 10.3693 1.81624 14.7292C0.0103381 19.089 -0.462169 23.8864 0.458473 28.5148C1.37912 33.1432 3.65156 37.3946 6.98844 40.7315C10.3253 44.0684 14.5768 46.3408 19.2051 47.2615C23.8335 48.1821 28.631 47.7096 32.9908 45.9037C37.3506 44.0978 41.0771 41.0396 43.6988 37.1159C46.3206 33.1921 47.72 28.579 47.72 23.86C47.7132 17.534 45.1972 11.469 40.7241 6.99587C36.2509 2.52271 30.186 0.00673934 23.86 0V0ZM23.86 43.867V3.8529C29.1662 3.8529 34.2551 5.96078 38.0071 9.71284C41.7592 13.4649 43.8671 18.5538 43.8671 23.86C43.8671 29.1662 41.7592 34.2551 38.0071 38.0071C34.2551 41.7592 29.1662 43.867 23.86 43.867Z" fill="url(#paint0_linear)"/>
<defs>
<linearGradient id="paint0_linear" x1="23.86" y1="0" x2="23.86" y2="47.72" gradientUnits="userSpaceOnUse">
<stop stop-color="#FF4041"/>
<stop offset="0.296875" stop-color="#FF6190"/>
<stop offset="0.578125" stop-color="#FF8B4B"/>
<stop offset="1" stop-color="#85D6F7"/>
</linearGradient>
</defs>
</svg>
